# xmcd CD database file
#
# Track frame offsets:
#	150
#	15229
#	33103
#	44499
#	59546
#	70505
#	85841
#	101727
#	113582
#	126738
#	148422
#	161586
#	172112
#	188855
#	202490
#	216858
#	233991
#
# Disc length: 3314 seconds
#
# Revision: 5
# Processed by: cddbd v1.5.2PL0 Copyright (c) Steve Scherf et al.
# Submitted via: CDex 1.70beta2
#
DISCID=000cf011
DTITLE=Götz Alsmann - Mein Geheimnis
DYEAR=2007
DGENRE=Jazz-Schlager
TTITLE0=Der blaue Montag
TTITLE1=Wenn ich in Stimmung bin
TTITLE2=Kokettier nicht mit mir (feat. Annett Louisan)
TTITLE3=Indiskret
TTITLE4=Hey, hey, grosses Mädchen (Hey, hey, big boy)
TTITLE5=Irgendwo, irgendwann
TTITLE6=Ein Traum
TTITLE7=Vorsicht, Vorsicht
TTITLE8=Letkiss
TTITLE9=Bei Dir war es immer so schön
TTITLE10=Ein Gläschen Wein und Du
TTITLE11=Ausgerechnet Du
TTITLE12=Weisst Du es noch
TTITLE13=Wie immer
TTITLE14=Wenn es Frühling wird
TTITLE15=Du bist mein Geheimnis
TTITLE16=Zugnovelle
EXTD=YEAR: 2007
EXTT0=
EXTT1=
EXTT2=mit Annett Louisan
EXTT3=
EXTT4=Hey, Hey, Big Boy
EXTT5=
EXTT6=
EXTT7=
EXTT8=
EXTT9=
EXTT10=
EXTT11=
EXTT12=
EXTT13=
EXTT14=
EXTT15=
EXTT16=
PLAYORDER=
